<?xml version="1.0" standalone="no"?><!DOCTYPE svg PUBLIC "-//W3C//DTD SVG 1.1//EN" "http://www.w3.org/Graphics/SVG/1.1/DTD/svg11.dtd"><svg t="1555657258127" class="icon" style="" viewBox="0 0 1024 1024" version="1.1" xmlns="http://www.w3.org/2000/svg" p-id="2942" xmlns:xlink="http://www.w3.org/1999/xlink" width="200" height="200"><defs><style type="text/css"></style></defs><path d="M448 768c-12.8 0-21.333333 8.533333-21.333333 21.333333l0 128c0 12.8 8.533333 21.333333 21.333333 21.333333 12.8 0 21.333333-8.533333 21.333333-21.333333l0-128C469.333333 776.533333 460.8 768 448 768zM320 725.333333c-12.8 0-21.333333 8.533333-21.333333 21.333333l0 85.333333c0 12.8 8.533333 21.333333 21.333333 21.333333 12.8 0 21.333333-8.533333 21.333333-21.333333l0-85.333333C341.333333 733.866667 332.8 725.333333 320 725.333333zM192 682.666667c-12.8 0-21.333333 8.533333-21.333333 21.333333l0 128c0 12.8 8.533333 21.333333 21.333333 21.333333 12.8 0 21.333333-8.533333 21.333333-21.333333l0-128C213.333333 691.2 204.8 682.666667 192 682.666667zM576 725.333333c-12.8 0-21.333333 8.533333-21.333333 21.333333l0 128c0 12.8 8.533333 21.333333 21.333333 21.333333 12.8 0 21.333333-8.533333 21.333333-21.333333l0-128C597.333333 733.866667 588.8 725.333333 576 725.333333zM853.333333 305.066667c0-2.133333 0-4.266667 0-6.4 0-70.4-57.6-128-128-128-32 0-61.866667 12.8-83.2 32C595.2 132.266667 516.266667 85.333333 426.666667 85.333333 298.666667 85.333333 192 179.2 172.8 302.933333 98.133333 322.133333 42.666667 388.266667 42.666667 469.333333c0 93.866667 76.8 170.666667 170.666667 170.666667l597.333333 0c93.866667 0 170.666667-76.8 170.666667-170.666667C981.333333 390.4 925.866667 322.133333 853.333333 305.066667zM810.666667 597.333333 213.333333 597.333333c-70.4 0-128-57.6-128-128 0-59.733333 40.533333-110.933333 98.133333-123.733333 17.066667-4.266667 29.866667-17.066667 32-36.266667C230.4 206.933333 322.133333 128 426.666667 128c72.533333 0 117.333333 14.933333 157.866667 76.8 6.4 10.666667 38.4 38.4 51.2 40.533333 2.133333 0 6.4 0 6.4 0 10.666667 0 19.2-4.266667 27.733333-10.666667 14.933333-12.8 36.266667-21.333333 55.466667-21.333333 46.933333 0 85.333333 38.4 85.333333 85.333333l0 2.133333c0 19.2 12.8 38.4 32 42.666667 57.6 14.933333 96 66.133333 96 123.733333C938.666667 539.733333 881.066667 597.333333 810.666667 597.333333zM832 682.666667c-12.8 0-21.333333 8.533333-21.333333 21.333333l0 85.333333c0 12.8 8.533333 21.333333 21.333333 21.333333 12.8 0 21.333333-8.533333 21.333333-21.333333l0-85.333333C853.333333 691.2 844.8 682.666667 832 682.666667zM704 682.666667c-12.8 0-21.333333 8.533333-21.333333 21.333333l0 128c0 12.8 8.533333 21.333333 21.333333 21.333333 12.8 0 21.333333-8.533333 21.333333-21.333333l0-128C725.333333 691.2 716.8 682.666667 704 682.666667z" p-id="2943" fill="#d81e06"></path></svg>