<?xml version="1.0" standalone="no"?><!DOCTYPE svg PUBLIC "-//W3C//DTD SVG 1.1//EN" "http://www.w3.org/Graphics/SVG/1.1/DTD/svg11.dtd"><svg t="1555991360291" class="icon" style="" viewBox="0 0 1200 1024" version="1.1" xmlns="http://www.w3.org/2000/svg" p-id="8639" xmlns:xlink="http://www.w3.org/1999/xlink" width="234.375" height="200"><defs><style type="text/css"></style></defs><path d="M29.713127 35.941206h1147.264065v967.947289H29.713127z" fill="#D10016" p-id="8640"></path><path d="M74.996452 0h1050.988343a75.255955 75.255955 0 0 1 74.996452 74.996452v874.007096a75.255955 75.255955 0 0 1-74.996452 74.996452h-1050.988343A75.255955 75.255955 0 0 1 0 949.003548V74.996452A75.255955 75.255955 0 0 1 74.996452 0z m346.177395 731.539787V964.054739h704.681196a14.791688 14.791688 0 0 0 10.509884-4.541308 14.532184 14.532184 0 0 0 4.541307-10.509883V731.539787zM373.554992 964.054739V731.539787H59.945261v217.463761A14.921439 14.921439 0 0 0 64.875824 960.16219a15.310694 15.310694 0 0 0 10.639635 4.541307zM727.906741 59.945261V674.708566h412.999493V74.996452a15.310694 15.310694 0 0 0-15.051191-15.051191zM671.07552 674.708566V59.945261H74.996452a15.051191 15.051191 0 0 0-15.051191 15.051191V674.708566z" fill="#1B1918" p-id="8641"></path><path d="M74.8667 59.945261h596.857578V674.708566H59.945261V74.8667a15.051191 15.051191 0 0 1 14.921439-14.921439z" fill="#C4C6C8" p-id="8642"></path><path d="M1052.415611 141.299544v34.254435h-90.826153l51.900659 116.776482c2.984288 7.525596 6.487582 11.418145 10.380131 11.418145h29.713128v34.124683H999.087684q-8.563609 0-14.402433-14.013177l-48.00811-116.776483-45.542828 112.62443q-8.044602 18.294982-18.294982 18.294982h-57.350228v-33.86518h32.178408q8.174354 0 17.127218-24.133806l41.131272-103.801318h-89.398885v-34.903193h98.351749v-38.925494h40.352762v38.925494z m-147.916878 256.129751h136.498733v197.741511c0 4.022301 2.595033 6.098327 7.525595 6.098327h6.098328v29.194121h-25.95033a20.890015 20.890015 0 0 1-23.485048-23.874303V448.940699l-50.603142 81.613787 18.554485 35.032944c3.373543 6.617334 7.136341 9.990877 11.158642 9.990877H999.087684v32.048657h-37.498226c-6.617334 0-12.066903-4.281804-16.47846-12.975165l-14.013177-25.950329-15.959453 25.950329c-5.060314 8.823112-10.769387 12.975165-16.997466 12.975165h-29.842879v-32.048657h12.975165c3.633046 0 7.266092-3.762798 10.509883-11.158642l19.981754-32.437911-45.67258-85.376584h43.466802l24.652813 47.099848 27.896604-46.710593h42.688292V428.180436H864.016219v165.952357a32.048657 32.048657 0 0 1-36.070958 36.330461h-11.418145v-31.270147h4.022301q7.395844 0 7.395844-9.342119V397.429295z" fill="#FFFFFF" p-id="8643"></path><path d="M1055.659402 631.501267h-27.118094a21.928028 21.928028 0 0 1-24.523062-24.912316V452.573746l-48.397364 77.850988 18.554485 34.513938c3.11404 6.228079 6.487582 9.47187 10.120629 9.47187h15.440446v34.124684h-38.146984a20.111505 20.111505 0 0 1-17.386721-12.975165l-12.975165-24.652813-15.180943 24.004055c-5.319818 9.082615-11.288393 13.753675-17.905727 13.753674h-30.880892v-34.124683H882.311201c3.243791 0 6.487582-3.503294 9.601622-10.509883L910.467309 531.981754l-45.413077-85.117081v147.26812a32.956918 32.956918 0 0 1-37.108971 37.368474h-12.975165V598.155094h5.060315c2.724785 0 6.357831-0.908262 6.35783-8.304106V396.391282h215.77699v198.779524c0 2.205778 0.648758 5.060314 6.35783 5.060314h7.136341z m-49.565129-186.323365v161.411049a19.981754 19.981754 0 0 0 22.447035 22.83629h25.042068v-27.118095h-5.060315c-7.006589 0-8.563609-3.892549-8.563608-7.13634V398.467309H828.983274v191.383679c0 8.563609-4.541308 10.380132-8.433857 10.380132H817.435378v29.194121h10.25038a30.880892 30.880892 0 0 0 35.032944-35.292448V427.401926h142.726812z m-74.996452 121.447541l14.921439 27.766853c4.281804 8.174354 9.47187 12.196655 15.570198 12.196655h35.941206v-29.972631h-12.975165c-4.411556 0-8.563609-3.503294-12.066903-10.639635l-19.073492-35.551951 50.732894-81.873289h-41.261024L934.21186 495.781044v-1.686771l-24.652813-46.061835h-41.650279L912.93259 531.981754l-19.462747 32.178408c-3.503294 7.655347-7.266092 11.547897-11.418145 11.547897H869.336036v29.97263h28.804866c5.838824 0 11.158642-4.281804 16.089204-12.975164z m-66.043589-120.669031h45.153573L934.21186 491.49924l27.118094-45.542828h42.299037V429.477952H865.054232z m189.567157-106.655854H999.087684c-6.098327 0-11.288393-4.930563-15.310695-14.661937l-47.489103-114.440952-44.504815 110.159148c-5.449569 12.975165-11.937152 18.94374-19.332995 18.943741h-57.998986v-36.20071h33.216421c3.373543 0 8.952864-4.152053 16.218956-23.485048l40.482514-103.022808h-88.879878v-36.330461h98.351748v-38.925495h42.428789v38.925495h97.313736v36.330461h-90.826153l50.732894 115.738469c2.854536 7.136341 5.968576 10.769387 9.47187 10.769387h31.010644z m-118.333503-134.68221L985.334009 324.379118c3.633046 8.823112 8.174354 12.975165 12.975165 12.975165h53.717182v-32.178409h-28.415611q-6.617334 0-11.288393-12.066903l-51.900659-118.593005h90.826153V142.726812h-97.054232V103.801318h-38.925494v38.925494H817.435378v32.048657h89.788139l-41.650278 105.877344c-6.228079 16.608211-12.196655 24.782565-18.165231 24.782565h-31.140395V337.354283h55.92296c6.487582 0 12.975165-5.968576 17.38672-17.646224z" fill="#000200" p-id="8644"></path><path d="M166.471363 763.588444H194.627471l-32.827167 53.068424h17.256969l10.509884-14.791688h29.453624l-47.748607 68.638621h30.621389v23.6148h-61.242777v-23.6148l22.83629-31.789153h-27.896605v-22.05778z m42.688292 141.688799v23.6148h-72.141916v-23.6148z m92.383173-137.926001v22.83629h-27.377597v116.776482h31.010643v23.6148h-92.253421v-23.095793H246.52813v-116.776483h-29.194121v-23.355296z" fill="#FFFFFF" p-id="8645"></path><path d="M306.213887 932.135834h-94.329447v-25.95033H246.52813V791.485048h-30.232134v-25.171819h86.284845V791.485048h-27.377597v115.219463h31.010643z m-92.253421-2.076027h90.826153V908.261531h-31.659402v-119.371516h27.377598v-20.760263h-82.132793v20.760263h29.583376V908.261531h-33.994932z m-3.762797 0h-74.217943v-25.950329h74.217943z m-72.141916-2.205778H207.602636v-21.538773h-70.06589z m64.875823-32.567663h-63.448555v-25.17182l21.668525-29.97263h-26.728839v-23.744552l31.270147-53.58743h31.140395l-32.827167 53.068424h14.661936l10.639635-14.791688h32.048657l-1.167765 1.686771L173.218449 869.336036h29.713127z m-61.242777-2.076026h59.036999v-21.668526H168.677141l1.167765-1.686771 47.2296-66.822098h-26.469336L180.095286 817.435378h-19.592498l32.827166-53.068424h-25.950329l-30.491637 51.900659v20.760263h28.934617l-23.874303 33.216422z" fill="#000200" p-id="8646"></path><path d="M642.78966 903.46072a31.789154 31.789154 0 0 1-9.731373 7.266092 25.950329 25.950329 0 0 1-11.158642 2.33553 27.766853 27.766853 0 0 1-13.753674-3.503295 29.713127 29.713127 0 0 1-10.639635-9.861125 43.33705 43.33705 0 0 1-5.709073-17.386721 218.631526 218.631526 0 0 1-1.816523-33.475925 232.514952 232.514952 0 0 1 1.686771-33.86518 40.612266 40.612266 0 0 1 5.838825-16.608211 29.453624 29.453624 0 0 1 11.677648-10.25038 38.146984 38.146984 0 0 1 16.737962-3.243791 32.827167 32.827167 0 0 1 25.95033 10.25038 47.618855 47.618855 0 0 1 9.861125 31.140396v1.297516h-28.285859a11.937152 11.937152 0 0 1 0-2.076026v-1.946275a22.706538 22.706538 0 0 0-1.686772-10.509883 6.098327 6.098327 0 0 0-5.838824-3.11404 5.968576 5.968576 0 0 0-5.709072 2.984288 32.30816 32.30816 0 0 0-1.686772 12.975165v46.191586a32.567663 32.567663 0 0 0 1.686772 12.975165 7.266092 7.266092 0 0 0 11.937151 0 30.361885 30.361885 0 0 0 1.686772-12.975165v-6.228079h-7.914851v-24.133806H661.733401v68.768373h-14.14293z m77.850989-31.789154h14.142929l-4.930562-43.466802-0.77851-8.174353v-8.563609H726.609225v7.395844c0 2.595033-0.648758 5.579321-1.038014 9.342118z m-31.529651 38.925494l22.057781-123.393816h32.956918l21.409022 123.264065h-27.50735l-2.205778-16.218956h-17.256969l-2.335529 16.218956z m106.526103 0v-123.523568h27.766852v97.832742h36.460213v25.95033z m93.031931 0v-123.523568h60.723771v25.95033h-33.735428v21.798276h27.507349v25.95033h-27.507349v24.133806h35.551951v25.95033z" fill="#FFFFFF" p-id="8647"></path><path d="M621.899645 914.100355a28.156107 28.156107 0 0 1-14.272681-3.633046 30.491637 30.491637 0 0 1-11.02889-10.120629 46.710593 46.710593 0 0 1-5.838824-18.035479 216.036493 216.036493 0 0 1-1.816523-33.605676 235.49924 235.49924 0 0 1 1.686771-34.124684 43.856057 43.856057 0 0 1 6.228079-16.997465 30.232134 30.232134 0 0 1 12.066903-10.509884 40.871769 40.871769 0 0 1 17.25697-3.373543 33.605677 33.605677 0 0 1 27.247845 10.639635 48.527116 48.527116 0 0 1 9.082616 31.918906v2.335529h-29.842879v-3.243791a10.639635 10.639635 0 0 0 0-1.816523 22.317283 22.317283 0 0 0-1.55702-9.990877 5.190066 5.190066 0 0 0-4.930562-2.595033 4.930563 4.930563 0 0 0-4.800811 2.465282 31.399899 31.399899 0 0 0-1.427268 12.196654v46.191587a31.659402 31.659402 0 0 0 1.427268 12.975165 5.060314 5.060314 0 0 0 5.060314 2.465281 5.190066 5.190066 0 0 0 5.060314-2.724785 29.972631 29.972631 0 0 0 1.55702-12.196655v-5.57932h-7.914851v-25.95033H661.733401v70.844399h-14.661936l-4.411556-6.35783a35.551951 35.551951 0 0 1-9.082616 6.487582 27.377598 27.377598 0 0 1-11.677648 2.33553z m4.022301-128.324379a36.719716 36.719716 0 0 0-16.348707 3.243791 28.026356 28.026356 0 0 0-11.288394 9.731373 40.742017 40.742017 0 0 0-5.57932 16.218956 229.271161 229.271161 0 0 0-1.686772 33.735429 213.44146 213.44146 0 0 0 1.816523 33.605676 44.245312 44.245312 0 0 0 5.449569 17.127218 30.232134 30.232134 0 0 0 10.380132 9.47187 27.118094 27.118094 0 0 0 12.975165 3.373543 25.17182 25.17182 0 0 0 10.769387-2.33553 31.010644 31.010644 0 0 0 9.342118-7.006589l0.908262-0.908261 5.319817 7.655347h11.937152V843.385707h-32.827167v21.798277h7.914851v7.266092a30.232134 30.232134 0 0 1-1.816523 12.975165 7.136341 7.136341 0 0 1-6.876838 3.762798 7.136341 7.136341 0 0 1-6.876837-3.503295 32.956918 32.956918 0 0 1-1.816523-12.975165v-47.099848a32.827167 32.827167 0 0 1 1.816523-12.975164 6.876837 6.876837 0 0 1 6.617334-3.503295 7.006589 7.006589 0 0 1 6.747086 3.633046 22.447035 22.447035 0 0 1 1.816523 11.02889v1.946275a2.854536 2.854536 0 0 0 0 1.038013h25.950329a45.932083 45.932083 0 0 0-8.563609-30.491637 31.918905 31.918905 0 0 0-26.080081-10.509883z m326.325393 125.729346h-64.875824v-125.469843h62.799798v27.637101h-33.475925v19.72225h27.507349v27.637101h-27.507349v22.83629h35.551951z m-62.929549-2.076027h60.853523v-23.485048h-35.551952V858.955905h27.50735v-23.485048h-27.50735v-23.874304h33.216422v-23.355296h-58.517993z m-28.934617 2.076027H794.080081v-125.469843h29.842879v97.832742h36.460213z m-64.875824-2.076027h62.151039v-23.485048h-35.811454v-97.70299h-25.95033z m-29.19412 2.076027h-29.842879L734.91333 895.286366h-15.440446l-2.33553 16.218956H687.68373l22.576787-125.469843h34.64369v0.908261zM739.584389 909.429295h25.95033l-21.668525-121.188038h-31.140396l-21.798276 121.188038h25.950329l2.33553-16.218955h19.073492z m-3.503294-36.719716h-17.127218l5.968576-53.976685V810.299037h3.503295v9.342119c0 2.724785 0 5.449569 0.908261 8.174353z m-14.14293-2.076026h11.8074l-4.800811-42.299037-0.77851-8.304105v-4.152053 2.984288l-1.038013 9.47187z" fill="#000200" p-id="8648"></path><path d="M148.046629 570.907248l160.373036-429.996959 261.579321 94.718702-4.411556 41.001521-281.042068 62.540294L194.627471 583.882413s-45.802331-14.402433-46.580842-12.975165z m186.453118-371.868221l-33.605677 88.750127 173.737456-38.017233s-140.910289-51.900659-140.131779-50.732894z" fill="#D10016" p-id="8649"></path><path d="M196.833249 587.904714l-2.595033-0.77851c-16.348708-5.319818-43.33705-13.753675-46.061835-14.14293V570.907248l-2.854536-1.816523 161.411049-431.683731L572.983274 233.552965l-4.930562 45.023822h-1.946275l-279.485048 63.0593zM151.809427 568.312215c5.449569 1.167765 16.737962 4.671059 41.650279 12.975165L282.469336 337.354283h1.427268l279.095793-62.280791 4.022301-36.849468-257.038013-93.810441z m144.673087-276.760264l35.681703-93.940192c1.427268-2.205778 1.427268-2.33553 142.726812 49.565129l8.952864 3.243791z m39.704004-89.00963l-30.880892 81.484035 159.464774-34.903193c-38.925494-14.272681-114.440953-41.520527-128.583882-46.580842z" fill="#1B1918" p-id="8650"></path></svg>