<?xml version="1.0" standalone="no"?><!DOCTYPE svg PUBLIC "-//W3C//DTD SVG 1.1//EN" "http://www.w3.org/Graphics/SVG/1.1/DTD/svg11.dtd"><svg t="1555664878541" class="icon" style="" viewBox="0 0 1024 1024" version="1.1" xmlns="http://www.w3.org/2000/svg" p-id="2231" xmlns:xlink="http://www.w3.org/1999/xlink" width="200" height="200"><defs><style type="text/css"></style></defs><path d="M768 704a191 191 0 0 1-132.69-53.23l-122.73-97.44L382.5 657.48a32.09 32.09 0 0 1-5.34 3.47A191.79 191.79 0 0 1 256 704c-105.87 0-192-86.13-192-192s86.13-192 192-192a191 191 0 0 1 132.69 53.23l123.73 98.24 123.9-99.2A191.08 191.08 0 0 1 768 320c105.87 0 192 86.13 192 192s-86.13 192-192 192z m-80.47-92.45a128 128 0 1 0 5.11-203c-1.24 1.42-128.81 103.79-128.81 103.79S686 609.7 687.53 611.55zM256 384a128 128 0 1 0 84.76 223.92c2.27-2 120.41-95.42 120.41-95.42s-123.22-98.2-124.7-100.06A127.23 127.23 0 0 0 256 384z" p-id="2232"></path><path d="M512 800m-32 0a32 32 0 1 0 64 0 32 32 0 1 0-64 0Z" p-id="2233"></path><path d="M512 224m-32 0a32 32 0 1 0 64 0 32 32 0 1 0-64 0Z" p-id="2234"></path><path d="M800 224m-32 0a32 32 0 1 0 64 0 32 32 0 1 0-64 0Z" p-id="2235"></path><path d="M224 800m-32 0a32 32 0 1 0 64 0 32 32 0 1 0-64 0Z" p-id="2236"></path><path d="M800 800m-32 0a32 32 0 1 0 64 0 32 32 0 1 0-64 0Z" p-id="2237"></path><path d="M224 224m-32 0a32 32 0 1 0 64 0 32 32 0 1 0-64 0Z" p-id="2238"></path></svg>