<?xml version="1.0" standalone="no"?><!DOCTYPE svg PUBLIC "-//W3C//DTD SVG 1.1//EN" "http://www.w3.org/Graphics/SVG/1.1/DTD/svg11.dtd"><svg t="1555664814563" class="icon" style="" viewBox="0 0 1024 1024" version="1.1" xmlns="http://www.w3.org/2000/svg" p-id="1426" xmlns:xlink="http://www.w3.org/1999/xlink" width="200" height="200"><defs><style type="text/css"></style></defs><path d="M336.326 856.928c-36.716-18.54-70.45-41.325-100.39-67.603-64.877-51.994-111.437-122.176-129.837-201.683a392.736 392.736 0 0 1-15.053-107.86c0-238.553 214.42-431.936 478.919-431.936 185.977 0 347.193 95.604 426.528 235.29-75.603-70.976-181.914-115.149-299.661-115.149-3.027 0-6.048 0.026-9.056 0.09 36.717 18.54 70.458 41.325 100.39 67.603 64.877 51.994 111.437 122.176 129.844 201.683a392.736 392.736 0 0 1 15.046 107.86c0 238.553-214.42 431.935-478.918 431.935-185.978 0-347.194-95.603-426.528-235.29 75.603 70.977 181.913 115.15 299.66 115.15 3.028 0 6.048-0.026 9.056-0.09z m181.447-180.032c94.297 0 170.745-76.448 170.745-170.752 0-94.291-76.448-170.74-170.745-170.74-94.298 0-170.74 76.449-170.74 170.746 0 94.298 76.442 170.74 170.74 170.74z" p-id="1427"></path></svg>